<?xml version="1.0" encoding="UTF-8"?>
<svg id="Layer_1" data-name="Layer 1" xmlns="http://www.w3.org/2000/svg" viewBox="0 0 189 60">
  <defs>
    <style>
      .cls-1 {
        stroke: #231f20;
        stroke-miterlimit: 10;
        stroke-width: .12px;
      }

      .cls-1, .cls-2 {
        fill: #231f20;
      }
    </style>
  </defs>
  <g>
    <path class="cls-2" d="M59.09,54.11c5.08-8.54,12.11-25.73,10.27-37.83C67.14,1.42,45.58.23,34.39,2.66c-10.43,2.32-20.1,8.38-24.91,17.94-4.92,9.62-4.7,23.08,6.48,26.64,7.13,2.32,16.05-.76,20-7.19-3.73,7.46-12.59,10.32-20.37,8.43C2.5,45.35-.9,31.52,6.02,19.58,11.85,9.63,22.61,3.74,33.9,1.69c12.38-2.16,33.13-.11,37.78,14.27,4,12.54-3.84,29.94-11.35,38.64-1.41,1.68-2.86,3.08-4.16,3.95.7.22,2.38.16,4.16-.22,2.22-.54,4-1.4,5.94-2.54,18.1-10.75,20.21-45.56,50.15-42.7,3.03.27,6.65,1.3,8.81,3.08-2.76-1.62-5.62-2.59-8.81-2.7-24.97-1.57-28.75,32.97-49.83,43.07-2.05,1.03-3.89,1.73-6.16,2.16-2.05.43-4.16.43-4.97.11-.05,0,2.27-2.54,3.62-4.7Z"/>
    <path class="cls-2" d="M87.2,45.17c-.4-2.11.55-4.68,1.61-6.39,1.56-2.37,4.38-5.13,7.5-5.13,1.01,0,1.91.45,2.22,1.26.55,1.11.2,2.32-.6,3.22-1.41,1.36-3.93,1.21-5.74,1.16-1.06,1.46-2.42,3.88-2.62,5.84-.05,1.01.2,2.11,1.36,2.37,1.71.5,3.83-.81,5.74-2.92,1.66-1.91,3.52-4.28,4.28-5.49h.45c-1.01,1.61-2.87,3.98-4.53,5.89-1.91,2.06-3.83,3.47-6.39,3.27-1.76-.2-2.92-1.41-3.27-3.07ZM96.91,37.02c.96-1.21,1.16-2.72.35-2.72-1.46-.1-4.03,3.42-4.78,4.58,2.32,0,3.62-.86,4.43-1.86Z"/>
    <path class="cls-2" d="M98.72,46.13c-.76-3.57,3.73-9.87,5.39-12.48,2.62-4.43,5.89-9.51,8.41-13.69h3.67c-2.97,4.78-6.04,9.46-9.01,14.15-1.81,2.82-6.69,10.02-6.59,12.43,0,.6.2,1.16.96,1.26,1.96.1,5.13-4.53,7.1-7.45l.91-1.26h.45l-.96,1.41c-2.06,3.22-5.13,7.6-7.6,7.75-1.26.05-2.42-.76-2.72-2.11Z"/>
    <path class="cls-2" d="M109.49,45.73c-.25-3.37,4.93-8.36,4.93-11.13,0-.5-.45-.55-.75-.3-1.11.6-3.07,3.83-3.83,4.88h-.45c.5-.86,2.52-4.13,3.78-5.08,1.16-.86,2.52-.55,2.92.7,1.26,3.57-4.08,9.31-4.13,11.68-.05,1.16,1.21,1.36,2.01.96,1.06-.6,2.22-1.91,3.37-3.52-.91-2.32,1.26-7.45,2.62-9.41,1.16-1.56,2.72-1.01,2.47.81-.4,2.32-3.27,6.7-4.63,8.71.25.4.6.6,1.01.7,2.11.2,4.28-3.72,5.59-5.64h.45c-1.36,2.01-3.52,6.29-6.14,5.99-.4,0-.91-.25-1.16-.7-1.11,1.56-2.32,2.87-3.42,3.47-1.76,1.01-4.43.05-4.63-2.11Z"/>
    <path class="cls-2" d="M122.78,45.17c-.4-2.11.55-4.68,1.61-6.39,1.56-2.37,4.38-5.13,7.5-5.13,1.01,0,1.91.45,2.21,1.26.55,1.11.2,2.32-.6,3.22-1.41,1.36-3.93,1.21-5.74,1.16-1.06,1.46-2.42,3.88-2.62,5.84-.05,1.01.2,2.11,1.36,2.37,1.71.5,3.83-.81,5.74-2.92,1.66-1.91,3.52-4.28,4.28-5.49h.45c-1.01,1.61-2.87,3.98-4.53,5.89-1.91,2.06-3.83,3.47-6.39,3.27-1.76-.2-2.92-1.41-3.27-3.07ZM132.49,37.02c.96-1.21,1.16-2.72.35-2.72-1.46-.1-4.03,3.42-4.78,4.58,2.32,0,3.62-.86,4.43-1.86Z"/>
    <path class="cls-2" d="M134.4,46.13c-.75-3.57,3.73-9.87,5.29-12.48,1.71-2.72,2.42-3.98,3.37-5.54h-3.22v-.4l3.52.1,1.91-3.12h3.62l-1.96,3.12h3.42v.4l-3.67-.1-3.88,5.99c-1.76,2.82-6.65,10.02-6.65,12.43.05.6.25,1.16,1.01,1.26,2.32.1,6.04-5.94,8-8.71h.5c-2.27,3.12-5.64,9.01-8.56,9.16-1.31.05-2.47-.76-2.72-2.11Z"/>
  </g>
  <g>
    <path class="cls-1" d="M144,45.32h-.08s-.06,0-.1-.02c-.04-.02-.08-.05-.11-.09-.03-.05-.05-.1-.05-.16s.01-.13.04-.21c.03-.08.1-.15.22-.21.06-.05.12-.07.18-.07.05,0,.1.02.15.07.05.05.08.1.09.16v.12s-.01.09-.04.13c-.03.04-.05.08-.08.13-.03.05-.06.08-.1.11s-.08.04-.12.06Z"/>
    <path class="cls-1" d="M148.82,48.99c-1.38,0-2.39-.29-3.05-.87-.37-.31-.57-.74-.59-1.29,0-.66.21-1.27.64-1.85s.93-1.05,1.5-1.4c.83-.56,1.68-.94,2.54-1.15.14-.02.27-.06.39-.14l.27-.28,5.13-6.67c.12-.19.27-.33.45-.42.05-.03.11-.05.16-.05.14,0,.2.06.2.19s-.05.25-.16.37c-1.23,1.54-2.45,3.06-3.68,4.54,2.21-.06,4.16-.77,5.85-2.13.45-.36.83-.78,1.14-1.26.27-.44.41-.87.41-1.31l-.02-.28c-.11-.45-.35-.79-.74-1.01-.49-.28-1.04-.43-1.66-.44-.63,0-1.26.09-1.88.26-2.64.69-5.04,2.15-7.18,4.4-.19.22-.35.33-.49.33-.11,0-.16-.06-.16-.19,0-.11.09-.26.26-.47,2.62-2.78,5.53-4.34,8.73-4.7.25-.03.48-.05.72-.05,1.38,0,2.27.51,2.68,1.54.08.19.12.4.12.63,0,.09-.01.19-.04.28-.11.37-.27.74-.48,1.09s-.45.67-.71.95c-.26.28-.54.54-.84.77-.94.67-1.93,1.19-2.96,1.54,1.73.23,2.66,1.05,2.78,2.43,0,1.34-.75,2.62-2.25,3.84-1.5,1.22-3.08,2.04-4.74,2.46-.8.22-1.59.33-2.35.33ZM148.72,48.36c1.32,0,2.64-.28,3.95-.84,1.09-.47,2.12-1.11,3.09-1.92,1.19-1.01,1.78-2.03,1.78-3.04v-.12c-.1-.83-.62-1.38-1.57-1.66-.75-.23-1.53-.35-2.35-.35-.36,0-.72.02-1.08.07-.1,0-.14-.05-.14-.14-.04.03-.07.07-.1.12l-.26.33-1.06,1.4c.42-.06.84-.09,1.27-.09,1.47,0,2.79.3,3.95.91.05.03.08.07.08.12,0,.11-.02.18-.07.22-.05.04-.1.06-.15.06h-.04c-1.17-.59-2.45-.89-3.82-.89-.5,0-1.02.05-1.55.14l-.31.44c-.72.98-1.12,1.47-1.21,1.47s-.13-.02-.15-.06c-.02-.04-.03-.07-.03-.1,0-.09.36-.63,1.08-1.61-.5.13-1.01.3-1.52.54s-1.02.56-1.52.97c-.5.41-.89.91-1.15,1.49-.11.28-.16.54-.16.77s.05.45.14.66c.22.36.52.61.9.75.64.25,1.32.37,2.05.37Z"/>
    <path class="cls-1" d="M157.96,48.27c-.34,0-.53-.16-.57-.49,0-.56.34-1.23,1.02-2.01,1.1-1.17,2.52-2.16,4.25-2.97l.72-.98.08-.14c.05-.12.08-.2.08-.23,0-.08-.05-.12-.14-.12-.07,0-.18.03-.33.09h-.04c-.48.23-.94.53-1.39.89l-.49.37c-.31.23-.64.42-.98.56-.1.05-.18.07-.27.07s-.17-.03-.26-.08-.13-.16-.13-.32c0-.22.1-.47.29-.75.42-.64.9-1.11,1.43-1.4.04-.03.08-.05.12-.05.12,0,.18.07.18.21s-.09.29-.27.44c-.49.5-.84.92-1.04,1.26-.03.08-.05.12-.08.14.11-.02.21-.05.31-.12l.08-.02c.33-.17.7-.41,1.12-.73.48-.39.97-.68,1.47-.87l.04-.02c.2-.06.33-.09.37-.09l.18.02c.2.06.31.23.31.49,0,.22-.13.52-.39.91l1.1-.42c.07,0,.11.04.12.12,0,.11-.05.19-.16.23-.46.17-.92.36-1.37.56-.74,1.08-1.51,2.07-2.31,2.97-.03.05-.06.09-.1.12-1.09,1.36-2.02,2.13-2.78,2.32l-.18.02ZM158.02,47.63c.26-.05.55-.22.88-.51.63-.53,1.21-1.13,1.76-1.8.38-.44.9-1.08,1.55-1.94-2.04,1.05-3.46,2.23-4.23,3.56-.11.25-.16.41-.16.49,0,.03,0,.07.02.13.01.05.07.08.18.08Z"/>
    <path class="cls-1" d="M168.9,48.34h-.06s-.05-.05-.06-.12c0-.06,0-.12.02-.16.25-.36.46-.65.66-.87.11-.14.21-.28.32-.41.1-.13.21-.27.34-.42.12-.15.25-.3.38-.47.13-.16.26-.33.38-.5.01-.03.03-.06.05-.08.02-.02.04-.05.07-.08.95-1.23,1.86-2.5,2.72-3.79-.6.03-1.45.05-2.56.05-.04.02-.22.02-.53.02-.78,0-1.21-.02-1.29-.07-.22-.02-.43-.05-.63-.12-.31-.09-.47-.3-.47-.63,0-.34.29-.72.86-1.12,1.49-1.14,3.06-2.04,4.72-2.71.5-.2.91-.3,1.23-.3.12,0,.25.02.37.05.42.13.63.43.63.91v.14c-.12.53-.35,1.05-.67,1.57-.04.06-.08.13-.1.21-.3.53-.61,1.05-.94,1.57h.04l1.66-2.06c.78-.95,1.56-1.9,2.35-2.83.7-.87,1.51-1.81,2.43-2.81.07-.08.13-.12.18-.12.12,0,.19.06.2.19l.02.07c0,.08-.03.15-.08.21l-.98,1.17c-.27.28-.85.95-1.72,2.01-.57.66-1.74,2.04-3.52,4.14.57,0,1.17-.02,1.8-.05l3.44-.07c3.82-5.19,5.86-7.79,6.13-7.79.13.02.2.09.2.23,0,.11-.58.89-1.74,2.34-1.6,2.03-2.94,3.76-4.03,5.19l1.53-.02c.08,0,.13.04.14.12,0,.08-.02.15-.06.22-.04.07-.11.11-.2.13-.72,0-1.16,0-1.31.02h-.45c-.08.11-.16.22-.24.33s-.15.21-.23.3c-.68.92-2.01,2.75-3.99,5.5-.05.08-.12.12-.18.12-.14,0-.2-.05-.2-.16,0-.06.03-.13.08-.19.68-1.01,1.38-2.01,2.11-2.99l2.09-2.9-5.26.12-.9,1.1c-1.3,1.56-2.56,3.14-3.8,4.75-.52.72-.83,1.08-.94,1.08ZM171.25,41.06l2.74-.07c.45-.72.87-1.44,1.27-2.18l.06-.12c.27-.51.41-.9.41-1.15,0-.12-.03-.23-.08-.33-.15-.22-.36-.33-.63-.33-.22.02-.43.06-.63.12-1.04.34-2.06.82-3.07,1.43-.85.53-1.56,1.03-2.15,1.5-.14.08-.26.18-.38.3-.12.12-.17.23-.17.33,0,.33.68.49,2.05.49h.59Z"/>
    <path class="cls-1" d="M181.27,43.52c-.14,0-.2-.09-.2-.26.03-.13.1-.25.2-.37l.2-.33.51-.73.41-.54c.23-.36.43-.54.59-.54.12,0,.18.06.18.19s-.12.34-.35.63l-.61.82c.65-.5,1.08-.81,1.29-.94l.04-.02c.26-.17.46-.26.61-.26.19,0,.29.12.29.35s-.17.56-.51.98c-.01,0-.03.02-.05.05-.02.03-.05.07-.09.13s-.06.11-.06.17c0,.03.02.06.06.07.12,0,.24-.02.35-.05.5-.14,1.06-.48,1.68-1.03.05-.05.1-.07.14-.07.08,0,.13.05.14.14,0,.06-.03.13-.1.19-.48.42-.98.76-1.51,1.03-.2.11-.43.19-.67.23l-.16.02c-.16,0-.29-.07-.39-.21-.03-.08-.04-.16-.04-.23,0-.23.15-.55.45-.96l.18-.28c-.11.02-.22.06-.33.14-.4.22-.89.58-1.49,1.1-.44.37-.69.56-.76.56Z"/>
  </g>
</svg>